<?xml version="1.0" standalone="no"?>
<!DOCTYPE svg PUBLIC "-//W3C//DTD SVG 1.1//EN" "http://www.w3.org/Graphics/SVG/1.1/DTD/svg11.dtd">
<!--Generator: Xara Designer (www.xara.com), SVG filter version: 6.7.0.0-->
<svg fill="none" fill-rule="evenodd" stroke="black" stroke-width="0.501" stroke-linejoin="bevel" stroke-miterlimit="10" font-family="Times New Roman" font-size="16" style="font-variant-ligatures:none" xmlns:xlink="http://www.w3.org/1999/xlink" xmlns="http://www.w3.org/2000/svg" version="1.1" overflow="visible" width="69.022pt" height="80.86pt" viewBox="182.252 -380.516 69.022 80.86">
 <defs>
  <marker id="DefaultArrowScaled" markerUnits="strokeWidth" viewBox="0 0 1 1" markerWidth="6" markerHeight="6" overflow="visible" orient="auto">
   <!-- REF_ARROW_ROUNDED -->
   <g transform="scale(0.0092592592)">
    <path d="M -9,0 L -9,-45 C -9,-51.708 2.808,-56.580 9,-54 L 117,-9 C 120.916,-7.369 126.000,-4.242 126,0 C 126,4.242 120.916,7.369 117,9 L 9,54 C 2.808,56.580 -9,51.708 -9,45 z"/>
   </g>
  </marker>
  <marker id="DefaultArrowScaled_1" markerUnits="strokeWidth" viewBox="0 0 1 1" markerWidth="6" markerHeight="6" overflow="visible" orient="auto">
   <!-- REF_ARROW_ROUNDED -->
   <g transform="scale(0.0092592592)">
    <path d="M -9,0 L -9,-45 C -9,-51.708 2.808,-56.580 9,-54 L 117,-9 C 120.916,-7.369 126.000,-4.242 126,0 C 126,4.242 120.916,7.369 117,9 L 9,54 C 2.808,56.580 -9,51.708 -9,45 z"/>
   </g>
  </marker>
 </defs>
 <g id="Layer 1" transform="scale(1 -1)">
  <path d="M 198.426,368.505 L 184.252,368.505 L 184.252,311.812 L 198.426,311.812" fill="none" stroke-width="4" marker-end="url(#DefaultArrowScaled)" stroke-linejoin="round" stroke-linecap="round"/>
  <path d="M 235.1,311.667 L 249.274,311.667 L 249.274,368.36 L 235.1,368.36" fill="none" stroke-width="4" marker-end="url(#DefaultArrowScaled_1)" stroke-linejoin="round" stroke-linecap="round"/>
 </g>
</svg>
