<?xml version="1.0" standalone="no"?>
<!DOCTYPE svg PUBLIC "-//W3C//DTD SVG 1.1//EN" "http://www.w3.org/Graphics/SVG/1.1/DTD/svg11.dtd">
<!--Generator: Xara Designer (www.xara.com), SVG filter version: 6.7.0.0-->
<svg fill="none" fill-rule="evenodd" stroke="black" stroke-width="0.501" stroke-linejoin="bevel" stroke-miterlimit="10" font-family="Times New Roman" font-size="16" style="font-variant-ligatures:none" xmlns:xlink="http://www.w3.org/1999/xlink" xmlns="http://www.w3.org/2000/svg" version="1.1" overflow="visible" width="54.298pt" height="56.767pt" viewBox="510.237 -536.017 54.298 56.767">
 <defs>
	</defs>
 <g id="Layer 1" transform="scale(1 -1)">
  <path d="M 531.358,504.771 L 531.358,481.89 C 531.358,480.432 530.177,479.25 528.718,479.25 C 527.259,479.25 526.078,480.432 526.078,481.89 L 526.078,491.57 L 515.517,491.57 L 515.517,481.89 C 515.517,480.432 514.336,479.25 512.877,479.25 C 511.418,479.25 510.237,480.432 510.237,481.89 L 510.237,504.771 C 510.237,506.229 511.418,507.411 512.877,507.411 C 514.336,507.411 515.517,506.229 515.517,504.771 L 515.517,496.851 L 526.078,496.851 L 526.078,504.771 C 526.078,506.229 527.259,507.411 528.718,507.411 C 530.177,507.411 531.358,506.229 531.358,504.771 Z M 543.809,507.211 C 542.82,507.621 541.687,507.394 540.931,506.639 L 535.651,501.358 C 534.62,500.327 534.62,498.657 535.651,497.625 C 536.683,496.594 538.353,496.594 539.384,497.625 L 540.157,498.398 L 540.157,481.89 C 540.157,480.432 541.338,479.25 542.797,479.25 C 544.256,479.25 545.437,480.432 545.437,481.89 L 545.437,504.771 C 545.437,505.838 544.795,506.801 543.807,507.211 Z" stroke="none" fill="#000000" stroke-width="1.76" fill-rule="nonzero" stroke-linejoin="miter" marker-start="none" marker-end="none"/>
  <path d="M 543.905,525.656 L 544.814,525.656 L 544.814,511.104 L 543.905,511.104 L 543.905,517.926 L 534.81,517.926 L 534.81,511.104 L 533.901,511.104 L 533.901,525.656 L 534.81,525.656 L 534.81,518.834 L 543.905,518.834 L 543.905,525.656 Z M 550.986,515.21 C 553.208,516.627 555.728,518.234 555.728,521.107 C 555.728,523.659 553.717,525.656 551.148,525.656 C 548.659,525.656 546.633,523.615 546.633,521.107 L 547.543,521.107 C 547.543,523.114 549.16,524.746 551.148,524.746 C 553.206,524.746 554.819,523.148 554.819,521.107 C 554.819,518.733 552.622,517.331 550.498,515.977 C 548.509,514.709 546.633,513.512 546.633,511.558 L 546.633,511.104 L 555.728,511.104 L 555.728,512.014 L 547.598,512.014 C 547.902,513.243 549.406,514.201 550.986,515.21 Z" stroke="none" fill="#000000" stroke-width="0.909" fill-rule="nonzero" stroke-linejoin="miter" marker-start="none" marker-end="none"/>
  <path d="M 558.748,535.776 L 558.748,528.542 C 558.748,528.409 558.64,528.301 558.507,528.301 C 558.374,528.301 558.266,528.409 558.266,528.542 L 558.266,532.159 L 553.443,532.159 L 553.443,528.542 C 553.443,528.409 553.335,528.301 553.202,528.301 C 553.069,528.301 552.961,528.409 552.961,528.542 L 552.961,535.776 C 552.961,535.909 553.069,536.017 553.202,536.017 C 553.335,536.017 553.443,535.909 553.443,535.776 L 553.443,532.641 L 558.266,532.641 L 558.266,535.776 C 558.266,535.909 558.374,536.017 558.507,536.017 C 558.64,536.017 558.748,535.909 558.748,535.776 Z M 563.206,532.866 C 563.712,533.158 564.052,533.704 564.052,534.329 C 564.052,535.26 563.295,536.017 562.365,536.017 L 559.953,536.017 C 559.82,536.017 559.712,535.909 559.712,535.776 C 559.712,535.643 559.82,535.535 559.953,535.535 L 562.365,535.535 C 563.03,535.535 563.57,534.994 563.57,534.329 C 563.57,533.664 563.03,533.123 562.365,533.123 L 560.918,533.123 C 560.785,533.123 560.677,533.016 560.677,532.882 C 560.677,532.749 560.785,532.641 560.918,532.641 L 562.124,532.641 C 563.187,532.641 564.052,531.776 564.052,530.712 C 564.052,529.648 563.187,528.783 562.124,528.783 L 559.953,528.783 C 559.82,528.783 559.712,528.675 559.712,528.542 C 559.712,528.409 559.82,528.301 559.953,528.301 L 562.124,528.301 C 563.453,528.301 564.535,529.383 564.535,530.712 C 564.535,531.653 563.993,532.469 563.206,532.866 Z" stroke="none" fill="#000000" stroke-width="0.482" fill-rule="nonzero" stroke-linejoin="miter" marker-start="none" marker-end="none"/>
 </g>
</svg>
