<?xml version="1.0" encoding="UTF-8" standalone="no"?>
<svg
   id="Layer_1"
   data-name="Layer 1"
   viewBox="0 0 24 24"
   width="512"
   height="512"
   version="1.1"
   sodipodi:docname="replace-menu.svg"
   inkscape:version="1.1.2 (0a00cf5339, 2022-02-04)"
   xmlns:inkscape="http://www.inkscape.org/namespaces/inkscape"
   xmlns:sodipodi="http://sodipodi.sourceforge.net/DTD/sodipodi-0.dtd"
   xmlns="http://www.w3.org/2000/svg"
   xmlns:svg="http://www.w3.org/2000/svg">
  <defs
     id="defs276" />
  <sodipodi:namedview
     id="namedview274"
     pagecolor="#ffffff"
     bordercolor="#666666"
     borderopacity="1.0"
     inkscape:pageshadow="2"
     inkscape:pageopacity="0.0"
     inkscape:pagecheckerboard="0"
     showgrid="false"
     inkscape:zoom="0.80957031"
     inkscape:cx="260.01448"
     inkscape:cy="637.99276"
     inkscape:window-width="1920"
     inkscape:window-height="1008"
     inkscape:window-x="0"
     inkscape:window-y="40"
     inkscape:window-maximized="1"
     inkscape:current-layer="Layer_1" />
  <path
     d="M11,19.49s0,0,0,0,0,0,0,0c0,.5-.19,1-.58,1.38l-2.57,2.52c-.1,.09-.22,.14-.35,.14s-.26-.05-.36-.15c-.19-.2-.19-.51,0-.71l2.57-2.51c.06-.06,.1-.12,.14-.18H4.5c-1.93,0-3.5-1.57-3.5-3.5v-3c0-.28,.22-.5,.5-.5s.5,.22,.5,.5v3c0,1.38,1.12,2.5,2.5,2.5h5.36c-.04-.07-.09-.13-.15-.19l-2.57-2.51c-.2-.19-.2-.51,0-.71s.51-.2,.71,0l2.57,2.51c.38,.38,.58,.89,.58,1.39Zm2.58-13.59l2.57,2.51c.1,.09,.22,.14,.35,.14s.26-.05,.36-.15c.19-.2,.19-.51,0-.71l-2.57-2.51c-.06-.06-.11-.12-.15-.19h5.36c1.38,0,2.5,1.12,2.5,2.5v3c0,.28,.22,.5,.5,.5s.5-.22,.5-.5v-3c0-1.93-1.57-3.5-3.5-3.5h-5.36c.04-.07,.09-.13,.14-.18l2.57-2.51c.2-.19,.2-.51,0-.71-.19-.2-.51-.2-.71,0l-2.57,2.52c-.38,.38-.57,.88-.58,1.38,0,0,0,0,0,0s0,0,0,0c0,.5,.2,1,.58,1.39Zm10.42,10.6v4c0,1.93-1.57,3.5-3.5,3.5h-4c-1.93,0-3.5-1.57-3.5-3.5v-4c0-1.93,1.57-3.5,3.5-3.5h4c1.93,0,3.5,1.57,3.5,3.5Zm-1,0c0-1.38-1.12-2.5-2.5-2.5h-4c-1.38,0-2.5,1.12-2.5,2.5v4c0,1.38,1.12,2.5,2.5,2.5h4c1.38,0,2.5-1.12,2.5-2.5v-4ZM11,3.5V7.5c0,1.93-1.57,3.5-3.5,3.5H3.5c-1.93,0-3.5-1.57-3.5-3.5V3.5C0,1.57,1.57,0,3.5,0H7.5c1.93,0,3.5,1.57,3.5,3.5Zm-1,0c0-1.38-1.12-2.5-2.5-2.5H3.5c-1.38,0-2.5,1.12-2.5,2.5V7.5c0,1.38,1.12,2.5,2.5,2.5H7.5c1.38,0,2.5-1.12,2.5-2.5V3.5Z"
     id="path271" />
  <path
     sodipodi:type="star"
     style="fill:#000000"
     id="path510"
     inkscape:flatsided="false"
     sodipodi:sides="3"
     sodipodi:cx="363.12305"
     sodipodi:cy="379.7377"
     sodipodi:r1="49.667183"
     sodipodi:r2="24.833591"
     sodipodi:arg1="1.5833045"
     sodipodi:arg2="2.6305021"
     inkscape:rounded="-3.469447e-18"
     inkscape:randomized="0"
     d="m 362.50182,429.401 -21.03892,-37.51648 -21.03892,-37.51647 43.00968,0.538 43.00968,0.538 -21.97076,36.97848 z"
     transform="matrix(0.06372891,0,0,0.03857162,-4.6018341,5.404952)"
     inkscape:transform-center-x="-0.019642567"
     inkscape:transform-center-y="0.45489312" />
</svg>
