<?xml version="1.0" encoding="UTF-8" standalone="no"?>
<svg
   id="Layer_1"
   data-name="Layer 1"
   viewBox="0 0 24 24"
   version="1.1"
   sodipodi:docname="search-menu.svg"
   inkscape:version="1.1.2 (0a00cf5339, 2022-02-04)"
   xmlns:inkscape="http://www.inkscape.org/namespaces/inkscape"
   xmlns:sodipodi="http://sodipodi.sourceforge.net/DTD/sodipodi-0.dtd"
   xmlns="http://www.w3.org/2000/svg"
   xmlns:svg="http://www.w3.org/2000/svg">
  <defs
     id="defs7" />
  <sodipodi:namedview
     id="namedview5"
     pagecolor="#ffffff"
     bordercolor="#666666"
     borderopacity="1.0"
     inkscape:pageshadow="2"
     inkscape:pageopacity="0.0"
     inkscape:pagecheckerboard="0"
     showgrid="false"
     inkscape:zoom="8.6354167"
     inkscape:cx="12.332931"
     inkscape:cy="19.049457"
     inkscape:window-width="1920"
     inkscape:window-height="1008"
     inkscape:window-x="0"
     inkscape:window-y="40"
     inkscape:window-maximized="1"
     inkscape:current-layer="Layer_1" />
  <path
     d="M23.854,23.146l-6.449-6.449c1.607-1.775,2.596-4.12,2.596-6.697C20,4.486,15.514,0,10,0S0,4.486,0,10s4.486,10,10,10c2.577,0,4.922-.988,6.697-2.596l6.449,6.449c.098,.098,.226,.146,.354,.146s.256-.049,.354-.146c.195-.195,.195-.512,0-.707ZM1,10C1,5.038,5.038,1,10,1s9,4.038,9,9-4.037,9-9,9S1,14.962,1,10Z"
     id="path2" />
  <path
     sodipodi:type="star"
     style="fill:#000000;fill-rule:evenodd"
     id="path50"
     inkscape:flatsided="false"
     sodipodi:sides="3"
     sodipodi:cx="21.895304"
     sodipodi:cy="17.689152"
     sodipodi:r1="1.8283329"
     sodipodi:r2="0.91416645"
     sodipodi:arg1="1.5886922"
     sodipodi:arg2="2.6358897"
     inkscape:rounded="0"
     inkscape:randomized="0"
     d="m 21.862586,19.517192 -0.767026,-1.385197 -0.767027,-1.385198 1.58313,0.02833 1.583129,0.02833 -0.816103,1.356863 z"
     inkscape:transform-center-x="-0.030347639"
     inkscape:transform-center-y="0.47004577"
     transform="matrix(1.8552642,0,0,1.0614346,-19.500127,-1.7840602)" />
</svg>
